<?xml version="1.0" encoding="UTF-8"?>
<svg xmlns="http://www.w3.org/2000/svg" width="1200" height="320" viewBox="0 0 1200 320" role="img">
  <title>Nehul Bhatnagar — ML Engineer</title>
  <defs><pattern id="dots" width="24" height="24" patternUnits="userSpaceOnUse"><circle cx="2" cy="2" r="1.2" fill="var(--faint)"/></pattern><linearGradient id="fade" x1="0" x2="1"><stop offset="0%" stop-color="white" stop-opacity="0"/><stop offset="46%" stop-color="white" stop-opacity="0"/><stop offset="70%" stop-color="white" stop-opacity="1"/><stop offset="100%" stop-color="white" stop-opacity="1"/></linearGradient><mask id="fadeMask"><rect x="0" y="0" width="1200" height="320" fill="url(#fade)"/></mask></defs>
  <style>:root{--bg:#FAFAF7;--border:#E4E2DA;--text:#1F2328;--muted:#656D76;--faint:#ECEAE3;--accent:#B45309;--teal:#0F766E;--violet:#6D28D9;--red:#B91C1C}.sans{font-family:-apple-system, BlinkMacSystemFont, "Segoe UI", "Noto Sans", Helvetica, Arial, sans-serif}.mono{font-family:ui-monospace, SFMono-Regular, "SF Mono", Menlo, Consolas, "Liberation Mono", monospace}.text{fill:var(--text)}.muted{fill:var(--muted)}.accent{fill:var(--accent)}.teal{fill:var(--teal)}.violet{fill:var(--violet)}.red{fill:var(--red)}.panel{fill:var(--bg);stroke:var(--border);stroke-width:1.2}@keyframes cursorBlink{0%,49%{opacity:1}50%,100%{opacity:0}}.cursor{fill:var(--accent);visibility:hidden}@keyframes type0{0.000%{width:0}15.000%{width:353.40px}31.333%{width:353.40px}33.333%{width:0}100%{width:0}}@keyframes cursorMove0{0.000%{transform:translateX(0)}15.000%{transform:translateX(353.40px)}31.333%{transform:translateX(353.40px)}33.333%{transform:translateX(0)}100%{transform:translateX(0)}}@keyframes cursorPhase0{0%{visibility:hidden}0.000%{visibility:visible}33.333%{visibility:hidden}100%{visibility:hidden}}.phraseMask0{animation:type0 10.5s steps(31,end) infinite}.cursor0{animation:cursorBlink 1s steps(2,end) infinite,cursorMove0 10.5s steps(31,end) infinite,cursorPhase0 10.5s steps(1,end) infinite}@keyframes type1{33.333%{width:0}48.333%{width:239.40px}64.667%{width:239.40px}66.667%{width:0}100%{width:0}}@keyframes cursorMove1{33.333%{transform:translateX(0)}48.333%{transform:translateX(239.40px)}64.667%{transform:translateX(239.40px)}66.667%{transform:translateX(0)}100%{transform:translateX(0)}}@keyframes cursorPhase1{0%{visibility:hidden}33.333%{visibility:visible}66.667%{visibility:hidden}100%{visibility:hidden}}.phraseMask1{animation:type1 10.5s steps(21,end) infinite}.cursor1{animation:cursorBlink 1s steps(2,end) infinite,cursorMove1 10.5s steps(21,end) infinite,cursorPhase1 10.5s steps(1,end) infinite}@keyframes type2{66.667%{width:0}81.667%{width:330.60px}98.000%{width:330.60px}100.000%{width:0}100%{width:0}}@keyframes cursorMove2{66.667%{transform:translateX(0)}81.667%{transform:translateX(330.60px)}98.000%{transform:translateX(330.60px)}100.000%{transform:translateX(0)}100%{transform:translateX(0)}}@keyframes cursorPhase2{0%{visibility:hidden}66.667%{visibility:visible}100.000%{visibility:hidden}100%{visibility:hidden}}.phraseMask2{animation:type2 10.5s steps(29,end) infinite}.cursor2{animation:cursorBlink 1s steps(2,end) infinite,cursorMove2 10.5s steps(29,end) infinite,cursorPhase2 10.5s steps(1,end) infinite}@keyframes fanFlow{0%{stroke-dashoffset:220;opacity:0}5%{opacity:0}9%{stroke-dashoffset:170;opacity:1}28%{stroke-dashoffset:0;opacity:1}35%{stroke-dashoffset:0;opacity:0}42%{stroke-dashoffset:220;opacity:0}47%{stroke-dashoffset:170;opacity:1}66%{stroke-dashoffset:0;opacity:1}73%{stroke-dashoffset:0;opacity:0}100%{stroke-dashoffset:220;opacity:0}}.edge{fill:none;stroke:var(--faint);stroke-width:1.5;stroke-linecap:round}.streak{fill:none;stroke-width:2.5;stroke-dasharray:14 600;stroke-dashoffset:220;opacity:0;stroke-linecap:round;animation:fanFlow 3.2s linear infinite}.inbound{stroke:var(--teal)}.outbound{stroke:var(--accent)}.model{fill:var(--violet);transform-box:fill-box;transform-origin:center;animation:modelPulse 3.2s ease-in-out infinite}@keyframes modelPulse{0%,24%,65%,100%{transform:scale(1);opacity:1}28%,33%,69%,74%{transform:scale(1.42);opacity:.72}}.consensus-ring{fill:none;stroke:var(--accent);stroke-width:2;opacity:0;transform-box:fill-box;transform-origin:center;animation:ring 3.2s ease-out infinite}@keyframes ring{0%,56%,100%{opacity:0;transform:scale(.65)}60%{opacity:.72;transform:scale(.8)}78%{opacity:0;transform:scale(1.8)}}.lane0{animation-delay:-0.00s}.model0{animation-delay:-0.00s}.lane1{animation-delay:-0.25s}.model1{animation-delay:-0.25s}.lane2{animation-delay:-0.50s}.model2{animation-delay:-0.50s}.lane3{animation-delay:-0.75s}.model3{animation-delay:-0.75s}.lane4{animation-delay:-1.00s}.model4{animation-delay:-1.00s}@media(prefers-reduced-motion:reduce){.streak{display:none}.model,.consensus-ring{animation:none}.consensus-ring{display:none}.phraseMask{animation:none!important;width:0!important}.phraseMask0{width:353.40px!important}.phrase1,.phrase2,.cursor1,.cursor2{display:none}.cursor0{animation:none;opacity:1;visibility:visible;transform:translateX(353.40px)}}</style>
  <rect class="panel" x="0.6" y="0.6" width="1198.8" height="318.8" rx="16"/><rect x="1" y="1" width="1198" height="318" rx="16" fill="url(#dots)" mask="url(#fadeMask)"/><text class="mono muted" x="56" y="58" font-size="15">~/zerodoxxx</text><text class="sans text" x="56" y="126" font-size="56" font-weight="700">Nehul Bhatnagar</text><text class="sans muted" x="56" y="169" font-size="22">ML Engineer II at Revionics · ex-Coinbase, Goldman Sachs</text><text class="mono accent" x="56" y="239" font-size="19">&gt; building </text><clipPath id="phraseClip0"><rect class="phraseMask phraseMask0" x="181.40" y="214" width="0" height="31"/></clipPath><text class="mono text phrase phrase0" x="181.40" y="239" font-size="19" clip-path="url(#phraseClip0)">retrieval that holds up in prod</text><rect class="cursor cursor0" x="181.40" y="220" width="10" height="21"/><clipPath id="phraseClip1"><rect class="phraseMask phraseMask1" x="181.40" y="214" width="0" height="31"/></clipPath><text class="mono text phrase phrase1" x="181.40" y="239" font-size="19" clip-path="url(#phraseClip1)">multi-agent workflows</text><rect class="cursor cursor1" x="181.40" y="220" width="10" height="21"/><clipPath id="phraseClip2"><rect class="phraseMask phraseMask2" x="181.40" y="214" width="0" height="31"/></clipPath><text class="mono text phrase phrase2" x="181.40" y="239" font-size="19" clip-path="url(#phraseClip2)">the pipelines underneath them</text><rect class="cursor cursor2" x="181.40" y="220" width="10" height="21"/><path class="edge" d="M 810 160 C 850 160 870 72 917 72"/><path class="edge" d="M 931 72 C 987 72 1020 160 1072 160"/><path class="edge" d="M 810 160 C 850 160 870 116 917 116"/><path class="edge" d="M 931 116 C 987 116 1020 160 1072 160"/><path class="edge" d="M 810 160 C 850 160 870 160 917 160"/><path class="edge" d="M 931 160 C 987 160 1020 160 1072 160"/><path class="edge" d="M 810 160 C 850 160 870 204 917 204"/><path class="edge" d="M 931 204 C 987 204 1020 160 1072 160"/><path class="edge" d="M 810 160 C 850 160 870 248 917 248"/><path class="edge" d="M 931 248 C 987 248 1020 160 1072 160"/><path class="streak inbound lane0" d="M 810 160 C 850 160 870 72 917 72"/><path class="streak inbound lane1" d="M 810 160 C 850 160 870 116 917 116"/><path class="streak inbound lane2" d="M 810 160 C 850 160 870 160 917 160"/><path class="streak inbound lane3" d="M 810 160 C 850 160 870 204 917 204"/><path class="streak inbound lane4" d="M 810 160 C 850 160 870 248 917 248"/><path class="streak outbound lane0" d="M 931 72 C 987 72 1020 160 1072 160"/><path class="streak outbound lane1" d="M 931 116 C 987 116 1020 160 1072 160"/><path class="streak outbound lane2" d="M 931 160 C 987 160 1020 160 1072 160"/><path class="streak outbound lane3" d="M 931 204 C 987 204 1020 160 1072 160"/><path class="streak outbound lane4" d="M 931 248 C 987 248 1020 160 1072 160"/><rect x="726" y="142" width="84" height="36" rx="9" fill="var(--bg)" stroke="var(--border)" stroke-width="1.3"/><text class="mono muted" x="768" y="164" text-anchor="middle" font-size="13">prompt</text><circle class="model model0" cx="924" cy="72" r="7"/><circle class="model model1" cx="924" cy="116" r="7"/><circle class="model model2" cx="924" cy="160" r="7"/><circle class="model model3" cx="924" cy="204" r="7"/><circle class="model model4" cx="924" cy="248" r="7"/><circle class="consensus-ring" cx="1094" cy="160" r="22"/><circle cx="1094" cy="160" r="22" fill="var(--bg)" stroke="var(--accent)" stroke-width="2"/><circle cx="1094" cy="160" r="5" fill="var(--accent)" opacity=".82"/><text class="mono muted" x="1094" y="204" text-anchor="middle" font-size="12">consensus</text>
</svg>
